<svg xmlns="http://www.w3.org/2000/svg" viewBox="0 0 500 500"><path d="M250 150c-20 0-40 10-50 25-10 15-15 35-10 55 5 20 20 35 40 40 20 5 40 0 55-10 15-10 25-30 25-50s-10-40-25-50c-10-7-22-10-35-10z" fill="#000"/><path d="M265 180c-5 0-10 2-12 6-3 4-4 9-2 14 1 5 5 9 10 10 5 1 10 0 14-2 4-3 6-8 6-13s-2-10-6-12c-3-2-6-3-9-3z" fill="#fff"/><path d="M300 200l80-20c30-8 60 10 68 40 8 30-10 60-40 68l-80 20c-30 8-60-10-68-40-8-30 10-60 40-68z" fill="#ffa500"/><path d="M380 220l20-5c10-3 20 3 23 13 3 10-3 20-13 23l-20 5c-10 3-20-3-23-13-3-10 3-20 13-23z" fill="#000"/><path d="M250 300c-40 0-80 20-100 50-20 30-30 70-20 110 10 40 40 70 80 80 40 10 80 0 110-20 30-20 50-60 50-100s-20-80-50-100c-20-13-45-20-70-20z" fill="#000"/><path d="M280 360c-10 0-20 5-25 12-5 8-8 18-5 28 2 10 10 18 20 20 10 2 20 0 28-5 7-5 12-15 12-25s-5-20-12-25c-5-3-11-5-18-5z" fill="#fff"/></svg>